<mxfile host="app.diagrams.net" modified="2023-05-30T13:17:29.700Z" agent="Mozilla/5.0 (Windows NT 10.0; Win64; x64) AppleWebKit/537.36 (KHTML, like Gecko) Chrome/113.0.0.0 Safari/537.36" etag="J-2Zcl0vuIMVur0Iavs5" version="21.3.5" type="github">
  <diagram name="Page-1" id="AOvWI4uNL-AsOfG4nODA">
    <mxGraphModel dx="1050" dy="549" grid="1" gridSize="10" guides="1" tooltips="1" connect="1" arrows="1" fold="1" page="1" pageScale="1" pageWidth="1169" pageHeight="827" math="0" shadow="0">
      <root>
        <mxCell id="0" />
        <mxCell id="1" parent="0" />
        <mxCell id="w1OQdlBQDTGpMxelsmzX-1" value="&amp;lt;&amp;lt;Class&amp;gt;&amp;gt;&lt;br&gt;OrderProcessTemplate" style="swimlane;whiteSpace=wrap;html=1;startSize=40;" vertex="1" parent="1">
          <mxGeometry x="370" y="90" width="200" height="200" as="geometry" />
        </mxCell>
        <mxCell id="w1OQdlBQDTGpMxelsmzX-6" value="+ishomeOrder: boolean" style="text;html=1;align=center;verticalAlign=middle;resizable=0;points=[];autosize=1;strokeColor=none;fillColor=none;" vertex="1" parent="w1OQdlBQDTGpMxelsmzX-1">
          <mxGeometry x="-5" y="38" width="150" height="30" as="geometry" />
        </mxCell>
        <mxCell id="w1OQdlBQDTGpMxelsmzX-7" value="+ doSelect(): void" style="text;html=1;align=center;verticalAlign=middle;resizable=0;points=[];autosize=1;strokeColor=none;fillColor=none;" vertex="1" parent="w1OQdlBQDTGpMxelsmzX-1">
          <mxGeometry x="-10" y="78" width="120" height="30" as="geometry" />
        </mxCell>
        <mxCell id="w1OQdlBQDTGpMxelsmzX-10" value="+doPayment():void" style="text;html=1;align=center;verticalAlign=middle;resizable=0;points=[];autosize=1;strokeColor=none;fillColor=none;" vertex="1" parent="w1OQdlBQDTGpMxelsmzX-1">
          <mxGeometry x="-5" y="100" width="120" height="30" as="geometry" />
        </mxCell>
        <mxCell id="w1OQdlBQDTGpMxelsmzX-11" value="+orderToHome():void" style="text;html=1;align=center;verticalAlign=middle;resizable=0;points=[];autosize=1;strokeColor=none;fillColor=none;" vertex="1" parent="w1OQdlBQDTGpMxelsmzX-1">
          <mxGeometry x="-10" y="120" width="140" height="30" as="geometry" />
        </mxCell>
        <mxCell id="w1OQdlBQDTGpMxelsmzX-12" value="+doDelivery():void" style="text;html=1;align=center;verticalAlign=middle;resizable=0;points=[];autosize=1;strokeColor=none;fillColor=none;" vertex="1" parent="w1OQdlBQDTGpMxelsmzX-1">
          <mxGeometry x="-10" y="140" width="120" height="30" as="geometry" />
        </mxCell>
        <mxCell id="w1OQdlBQDTGpMxelsmzX-13" value="+processOrder(boolean): void" style="text;html=1;align=center;verticalAlign=middle;resizable=0;points=[];autosize=1;strokeColor=none;fillColor=none;" vertex="1" parent="w1OQdlBQDTGpMxelsmzX-1">
          <mxGeometry x="-10" y="160" width="180" height="30" as="geometry" />
        </mxCell>
        <mxCell id="w1OQdlBQDTGpMxelsmzX-23" style="edgeStyle=orthogonalEdgeStyle;rounded=0;orthogonalLoop=1;jettySize=auto;html=1;exitX=0.5;exitY=0;exitDx=0;exitDy=0;" edge="1" parent="1" source="w1OQdlBQDTGpMxelsmzX-2">
          <mxGeometry relative="1" as="geometry">
            <mxPoint x="570" y="200" as="targetPoint" />
            <Array as="points">
              <mxPoint x="690" y="200" />
            </Array>
          </mxGeometry>
        </mxCell>
        <mxCell id="w1OQdlBQDTGpMxelsmzX-2" value="&amp;lt;&amp;lt;Class&amp;gt;&amp;gt;&lt;br&gt;NetOrder" style="swimlane;whiteSpace=wrap;html=1;startSize=40;" vertex="1" parent="1">
          <mxGeometry x="590" y="343" width="200" height="137" as="geometry" />
        </mxCell>
        <mxCell id="w1OQdlBQDTGpMxelsmzX-20" value="+doPayment(): void" style="text;html=1;align=center;verticalAlign=middle;resizable=0;points=[];autosize=1;strokeColor=none;fillColor=none;" vertex="1" parent="w1OQdlBQDTGpMxelsmzX-2">
          <mxGeometry x="-5" y="71" width="130" height="30" as="geometry" />
        </mxCell>
        <mxCell id="w1OQdlBQDTGpMxelsmzX-18" value="+doSelect() : void" style="text;html=1;align=center;verticalAlign=middle;resizable=0;points=[];autosize=1;strokeColor=none;fillColor=none;" vertex="1" parent="w1OQdlBQDTGpMxelsmzX-2">
          <mxGeometry y="44" width="120" height="30" as="geometry" />
        </mxCell>
        <mxCell id="w1OQdlBQDTGpMxelsmzX-21" value="+doDelivery(): void" style="text;html=1;align=center;verticalAlign=middle;resizable=0;points=[];autosize=1;strokeColor=none;fillColor=none;" vertex="1" parent="w1OQdlBQDTGpMxelsmzX-2">
          <mxGeometry y="101" width="120" height="30" as="geometry" />
        </mxCell>
        <mxCell id="w1OQdlBQDTGpMxelsmzX-22" style="edgeStyle=orthogonalEdgeStyle;rounded=0;orthogonalLoop=1;jettySize=auto;html=1;exitX=0.5;exitY=0;exitDx=0;exitDy=0;entryX=0.071;entryY=0.333;entryDx=0;entryDy=0;entryPerimeter=0;" edge="1" parent="1" source="w1OQdlBQDTGpMxelsmzX-4" target="w1OQdlBQDTGpMxelsmzX-11">
          <mxGeometry relative="1" as="geometry">
            <Array as="points">
              <mxPoint x="220" y="220" />
            </Array>
          </mxGeometry>
        </mxCell>
        <mxCell id="w1OQdlBQDTGpMxelsmzX-4" value="&amp;lt;&amp;lt;Class&amp;gt;&amp;gt;&lt;br&gt;LocalOrder" style="swimlane;whiteSpace=wrap;html=1;startSize=40;" vertex="1" parent="1">
          <mxGeometry x="115" y="340" width="200" height="140" as="geometry" />
        </mxCell>
        <mxCell id="w1OQdlBQDTGpMxelsmzX-15" value="+doSelect(): void" style="text;html=1;align=center;verticalAlign=middle;resizable=0;points=[];autosize=1;strokeColor=none;fillColor=none;" vertex="1" parent="w1OQdlBQDTGpMxelsmzX-4">
          <mxGeometry y="48" width="110" height="30" as="geometry" />
        </mxCell>
        <mxCell id="w1OQdlBQDTGpMxelsmzX-17" value="+doDelivery(): void" style="text;html=1;align=center;verticalAlign=middle;resizable=0;points=[];autosize=1;strokeColor=none;fillColor=none;" vertex="1" parent="w1OQdlBQDTGpMxelsmzX-4">
          <mxGeometry y="108" width="120" height="30" as="geometry" />
        </mxCell>
        <mxCell id="w1OQdlBQDTGpMxelsmzX-5" value="" style="endArrow=none;html=1;rounded=0;" edge="1" parent="1">
          <mxGeometry width="50" height="50" relative="1" as="geometry">
            <mxPoint x="370" y="160" as="sourcePoint" />
            <mxPoint x="570" y="160" as="targetPoint" />
          </mxGeometry>
        </mxCell>
        <mxCell id="w1OQdlBQDTGpMxelsmzX-16" value="+doPayment(): void" style="text;html=1;align=center;verticalAlign=middle;resizable=0;points=[];autosize=1;strokeColor=none;fillColor=none;" vertex="1" parent="1">
          <mxGeometry x="115" y="428" width="130" height="30" as="geometry" />
        </mxCell>
      </root>
    </mxGraphModel>
  </diagram>
</mxfile>
